<?xml version="1.0" encoding="utf-8"?>
<!-- Generator: Adobe Illustrator 19.0.1, SVG Export Plug-In . SVG Version: 6.00 Build 0)  -->
<!DOCTYPE svg PUBLIC "-//W3C//DTD SVG 1.1//EN" "http://www.w3.org/Graphics/SVG/1.1/DTD/svg11.dtd">
<svg version="1.1" id="レイヤー_1" xmlns="http://www.w3.org/2000/svg" xmlns:xlink="http://www.w3.org/1999/xlink" x="0px"
	 y="0px" viewBox="0 0 180 180" enable-background="new 0 0 180 180" xml:space="preserve">
<g>
	<path fill="#FFFFFF" d="M98.5,92.7c-2.9-3.3-7-5.1-12.2-5.5c4.6-1.3,8-3.1,10.1-5.6c2.1-2.4,3.2-5.7,3.2-9.9c0-3.3-0.7-6.2-2.1-8.7
		c-1.4-2.5-3.5-4.5-6.2-6c-2.4-1.3-5.2-2.2-8.5-2.8c-3.3-0.5-9.1-0.8-17.3-0.8H45.4v73.3h20.7c8.3,0,14.3-0.3,18-0.8
		c3.7-0.6,6.7-1.5,9.2-2.9c3.1-1.6,5.4-3.9,7.1-6.9c1.7-3,2.5-6.4,2.5-10.4C102.9,100.3,101.4,95.9,98.5,92.7z M64,69.6h4.3
		c5,0,8.3,0.6,10,1.7c1.7,1.1,2.6,3.1,2.6,5.8c0,2.7-0.9,4.5-2.7,5.6c-1.8,1.1-5.2,1.6-10.1,1.6h-4V69.6z M81,111.7
		c-2,1.2-5.3,1.8-10,1.8h-7v-16h7.3c4.9,0,8.2,0.6,10,1.8c1.8,1.2,2.7,3.4,2.7,6.5C83.9,108.5,83,110.5,81,111.7z"/>
	<rect x="116.1" y="53.4" fill="#FFFFFF" width="16.1" height="48.9"/>
	<path fill="#FFFFFF" d="M124.1,108.2c-5.1,0-9.3,4.2-9.3,9.3c0,5.1,4.2,9.3,9.3,9.3c5.1,0,9.3-4.2,9.3-9.3
		C133.4,112.3,129.3,108.2,124.1,108.2z"/>
</g>
</svg>
