<?xml version="1.0" encoding="utf-8"?>
<!-- Generator: Adobe Illustrator 19.0.1, SVG Export Plug-In . SVG Version: 6.00 Build 0)  -->
<!DOCTYPE svg PUBLIC "-//W3C//DTD SVG 1.1//EN" "http://www.w3.org/Graphics/SVG/1.1/DTD/svg11.dtd">
<svg version="1.1" id="レイヤー_1" xmlns="http://www.w3.org/2000/svg" xmlns:xlink="http://www.w3.org/1999/xlink" x="0px"
	 y="0px" viewBox="0 0 180 180" enable-background="new 0 0 180 180" xml:space="preserve">
<g>
	<g>
		<path fill="#FFFFFF" d="M147.7,85.9c0-26-26-47.1-58-47.1s-58,21.1-58,47.1c0,23.3,20.6,42.8,48.5,46.4c1.9,0.4,4.5,1.2,5.1,2.9
			c0.6,1.5,0.4,3.8,0.2,5.2c0,0-0.7,4.1-0.8,5c-0.3,1.5-1.2,5.7,5,3.1c6.2-2.6,33.4-19.7,45.6-33.7l0,0
			C143.7,105.6,147.7,96.2,147.7,85.9z M67,101.3H55.5c-1.7,0-3-1.4-3-3V75.2c0-1.7,1.4-3,3-3c1.7,0,3,1.4,3,3v20H67
			c1.7,0,3,1.4,3,3C70,99.9,68.7,101.3,67,101.3z M78.9,98.3c0,1.7-1.4,3-3,3c-1.7,0-3-1.4-3-3V75.2c0-1.7,1.4-3,3-3
			c1.7,0,3,1.4,3,3V98.3z M106.7,98.3c0,1.3-0.8,2.5-2.1,2.9c-0.3,0.1-0.6,0.2-1,0.2c-0.9,0-1.9-0.5-2.4-1.2L89.4,84v14.3
			c0,1.7-1.4,3-3,3c-1.7,0-3-1.4-3-3V75.2c0-1.3,0.8-2.5,2.1-2.9c0.3-0.1,0.6-0.2,1-0.2c0.9,0,1.9,0.5,2.4,1.2l11.8,16.1V75.2
			c0-1.7,1.4-3,3-3c1.7,0,3,1.4,3,3C106.7,75.2,106.7,98.3,106.7,98.3z M125.3,83.7c1.7,0,3,1.4,3,3c0,1.7-1.4,3-3,3h-8.5v5.4h8.5
			c1.7,0,3,1.4,3,3c0,1.7-1.4,3-3,3h-11.5c-1.7,0-3-1.4-3-3V86.7l0,0l0,0V75.2l0,0c0-1.7,1.4-3,3-3h11.5c1.7,0,3,1.4,3,3
			c0,1.7-1.4,3-3,3h-8.5v5.4L125.3,83.7L125.3,83.7z"/>
	</g>
</g>
</svg>
