<?xml version="1.0" encoding="utf-8"?>
<!-- Generator: Adobe Illustrator 19.0.1, SVG Export Plug-In . SVG Version: 6.00 Build 0)  -->
<!DOCTYPE svg PUBLIC "-//W3C//DTD SVG 1.1//EN" "http://www.w3.org/Graphics/SVG/1.1/DTD/svg11.dtd">
<svg version="1.1" id="レイヤー_1" xmlns="http://www.w3.org/2000/svg" xmlns:xlink="http://www.w3.org/1999/xlink" x="0px"
	 y="0px" viewBox="0 0 180 180" enable-background="new 0 0 180 180" xml:space="preserve">
<path fill="#FFFFFF" d="M150.8,86.8c-4.3,0.7-10.5,0-13.7-1.4c6.8-0.6,11.4-3.7,13.2-7.9c-2.5,1.5-10.1,3.2-14.3,1.6
	c-0.2-1-0.4-1.9-0.7-2.8c-3.2-11.8-14.2-21.3-25.7-20.1c0.9-0.4,1.9-0.7,2.8-1c1.3-0.5,8.7-1.7,7.5-4.3c-1-2.3-10.1,1.7-11.8,2.3
	c2.3-0.8,6-2.3,6.4-4.9c-3.5,0.5-6.9,2.1-9.5,4.5c0.9-1,1.7-2.3,1.8-3.6c-9.2,5.9-14.6,17.8-19,29.3c-3.4-3.3-6.5-5.9-9.2-7.4
	C71,67,61.8,62.7,47.5,57.4c-0.4,4.7,2.3,11.1,10.4,15.3c-1.7-0.2-4.9,0.3-7.5,0.9c1,5.4,4.4,9.9,13.6,12.1
	c-4.2,0.3-6.4,1.2-8.3,3.3c1.9,3.8,6.6,8.2,14.9,7.3c-9.3,4-3.8,11.5,3.8,10.3c-12.9,13.4-33.3,12.4-45,1.2
	c30.5,41.6,96.9,24.6,106.8-15.5C143.7,92.3,148.1,89.7,150.8,86.8z"/>
</svg>
